<svg xmlns="http://www.w3.org/2000/svg" xmlns:xlink="http://www.w3.org/1999/xlink" width="170" zoomAndPan="magnify" viewBox="0 0 127.5 30.000001" height="40" preserveAspectRatio="xMidYMid meet" version="1.0"><defs><g/></defs><g fill="#5271ff" fill-opacity="1"><g transform="translate(5.437955, 21.119005)"><g><path d="M 8.875 -20.46875 C 9.957031 -20.46875 11.019531 -20.3125 12.0625 -20 C 13.101562 -19.6875 13.875 -19.375 14.375 -19.0625 L 15.109375 -18.578125 L 13.265625 -14.921875 C 13.117188 -15.015625 12.914062 -15.140625 12.65625 -15.296875 C 12.394531 -15.453125 11.90625 -15.660156 11.1875 -15.921875 C 10.46875 -16.179688 9.800781 -16.3125 9.1875 -16.3125 C 8.425781 -16.3125 7.835938 -16.144531 7.421875 -15.8125 C 7.003906 -15.488281 6.796875 -15.050781 6.796875 -14.5 C 6.796875 -14.226562 6.894531 -13.972656 7.09375 -13.734375 C 7.289062 -13.492188 7.625 -13.238281 8.09375 -12.96875 C 8.5625 -12.707031 8.972656 -12.492188 9.328125 -12.328125 C 9.691406 -12.171875 10.25 -11.929688 11 -11.609375 C 12.289062 -11.054688 13.394531 -10.300781 14.3125 -9.34375 C 15.238281 -8.394531 15.703125 -7.320312 15.703125 -6.125 C 15.703125 -4.96875 15.492188 -3.957031 15.078125 -3.09375 C 14.660156 -2.226562 14.085938 -1.550781 13.359375 -1.0625 C 12.640625 -0.582031 11.84375 -0.226562 10.96875 0 C 10.09375 0.238281 9.140625 0.359375 8.109375 0.359375 C 7.234375 0.359375 6.375 0.269531 5.53125 0.09375 C 4.6875 -0.0820312 3.976562 -0.300781 3.40625 -0.5625 C 2.84375 -0.832031 2.332031 -1.097656 1.875 -1.359375 C 1.414062 -1.617188 1.082031 -1.835938 0.875 -2.015625 L 0.5625 -2.296875 L 2.859375 -6.140625 C 3.046875 -5.984375 3.3125 -5.773438 3.65625 -5.515625 C 4 -5.265625 4.601562 -4.925781 5.46875 -4.5 C 6.34375 -4.082031 7.113281 -3.875 7.78125 -3.875 C 9.707031 -3.875 10.671875 -4.53125 10.671875 -5.84375 C 10.671875 -6.125 10.601562 -6.378906 10.46875 -6.609375 C 10.332031 -6.847656 10.085938 -7.082031 9.734375 -7.3125 C 9.390625 -7.550781 9.082031 -7.738281 8.8125 -7.875 C 8.539062 -8.019531 8.097656 -8.234375 7.484375 -8.515625 C 6.878906 -8.804688 6.429688 -9.023438 6.140625 -9.171875 C 4.921875 -9.765625 3.976562 -10.507812 3.3125 -11.40625 C 2.644531 -12.3125 2.3125 -13.285156 2.3125 -14.328125 C 2.3125 -16.128906 2.976562 -17.601562 4.3125 -18.75 C 5.644531 -19.894531 7.164062 -20.46875 8.875 -20.46875 Z M 8.875 -20.46875 "/></g></g></g><g fill="#5271ff" fill-opacity="1"><g transform="translate(19.52017, 21.119005)"><g><path d="M 2.3125 -1.546875 C 1.144531 -2.828125 0.5625 -4.390625 0.5625 -6.234375 C 0.5625 -8.085938 1.144531 -9.65625 2.3125 -10.9375 C 3.488281 -12.226562 4.976562 -12.875 6.78125 -12.875 C 8.4375 -12.875 9.800781 -12.351562 10.875 -11.3125 L 10.875 -12.5 L 15.1875 -12.5 L 15.1875 0 L 10.921875 0 L 10.921875 -1.40625 L 10.875 -1.40625 C 9.800781 -0.226562 8.4375 0.359375 6.78125 0.359375 C 4.976562 0.359375 3.488281 -0.273438 2.3125 -1.546875 Z M 5.984375 -8.359375 C 5.421875 -7.804688 5.140625 -7.097656 5.140625 -6.234375 C 5.140625 -5.378906 5.40625 -4.675781 5.9375 -4.125 C 6.476562 -3.582031 7.1875 -3.3125 8.0625 -3.3125 C 8.90625 -3.3125 9.597656 -3.585938 10.140625 -4.140625 C 10.691406 -4.691406 10.96875 -5.390625 10.96875 -6.234375 C 10.96875 -7.097656 10.6875 -7.804688 10.125 -8.359375 C 9.5625 -8.910156 8.875 -9.1875 8.0625 -9.1875 C 7.238281 -9.1875 6.546875 -8.910156 5.984375 -8.359375 Z M 5.984375 -8.359375 "/></g></g></g><g fill="#5271ff" fill-opacity="1"><g transform="translate(33.870396, 21.119005)"><g><path d="M 1.46875 0 L 1.46875 -20.96875 L 5.78125 -20.96875 L 5.78125 0 Z M 1.46875 0 "/></g></g></g><g fill="#5271ff" fill-opacity="1"><g transform="translate(38.815791, 21.119005)"><g><path d="M 2.640625 -1.484375 C 1.253906 -2.722656 0.5625 -4.304688 0.5625 -6.234375 C 0.5625 -8.171875 1.285156 -9.757812 2.734375 -11 C 4.179688 -12.25 5.96875 -12.875 8.09375 -12.875 C 10.1875 -12.875 11.953125 -12.242188 13.390625 -10.984375 C 14.828125 -9.734375 15.546875 -8.148438 15.546875 -6.234375 C 15.546875 -4.316406 14.84375 -2.738281 13.4375 -1.5 C 12.03125 -0.257812 10.25 0.359375 8.09375 0.359375 C 5.851562 0.359375 4.035156 -0.253906 2.640625 -1.484375 Z M 5.984375 -8.359375 C 5.421875 -7.804688 5.140625 -7.097656 5.140625 -6.234375 C 5.140625 -5.378906 5.40625 -4.675781 5.9375 -4.125 C 6.476562 -3.582031 7.1875 -3.3125 8.0625 -3.3125 C 8.90625 -3.3125 9.597656 -3.585938 10.140625 -4.140625 C 10.691406 -4.691406 10.96875 -5.390625 10.96875 -6.234375 C 10.96875 -7.097656 10.6875 -7.804688 10.125 -8.359375 C 9.5625 -8.910156 8.875 -9.1875 8.0625 -9.1875 C 7.238281 -9.1875 6.546875 -8.910156 5.984375 -8.359375 Z M 5.984375 -8.359375 "/></g></g></g><g fill="#5271ff" fill-opacity="1"><g transform="translate(52.62999, 21.119005)"><g><path d="M 1.46875 0 L 1.46875 -12.5 L 5.78125 -12.5 L 5.78125 -11.1875 L 5.828125 -11.1875 C 6.941406 -12.3125 8.132812 -12.875 9.40625 -12.875 C 10.019531 -12.875 10.628906 -12.789062 11.234375 -12.625 C 11.847656 -12.457031 12.4375 -12.203125 13 -11.859375 C 13.5625 -11.523438 14.015625 -11.046875 14.359375 -10.421875 C 14.710938 -9.796875 14.890625 -9.066406 14.890625 -8.234375 L 14.890625 0 L 10.578125 0 L 10.578125 -7.0625 C 10.578125 -7.71875 10.367188 -8.285156 9.953125 -8.765625 C 9.535156 -9.253906 9 -9.5 8.34375 -9.5 C 7.6875 -9.5 7.09375 -9.25 6.5625 -8.75 C 6.039062 -8.25 5.78125 -7.6875 5.78125 -7.0625 L 5.78125 0 Z M 1.46875 0 "/></g></g></g><g fill="#5271ff" fill-opacity="1"><g transform="translate(66.444186, 21.119005)"><g><path d="M 12.96875 -20.109375 L 12.96875 -16.09375 L 6.046875 -16.09375 L 6.046875 -12.09375 L 12.671875 -12.09375 L 12.671875 -8.0625 L 6.046875 -8.0625 L 6.046875 -4.015625 L 12.96875 -4.015625 L 12.96875 0 L 1.46875 0 L 1.46875 -20.109375 Z M 12.96875 -20.109375 "/></g></g></g><g fill="#5271ff" fill-opacity="1"><g transform="translate(78.284828, 21.119005)"><g><path d="M 2.3125 -1.546875 C 1.144531 -2.828125 0.5625 -4.390625 0.5625 -6.234375 C 0.5625 -8.085938 1.144531 -9.65625 2.3125 -10.9375 C 3.488281 -12.226562 4.976562 -12.875 6.78125 -12.875 C 8.4375 -12.875 9.800781 -12.351562 10.875 -11.3125 L 10.875 -12.5 L 15.1875 -12.5 L 15.1875 0 L 10.921875 0 L 10.921875 -1.40625 L 10.875 -1.40625 C 9.800781 -0.226562 8.4375 0.359375 6.78125 0.359375 C 4.976562 0.359375 3.488281 -0.273438 2.3125 -1.546875 Z M 5.984375 -8.359375 C 5.421875 -7.804688 5.140625 -7.097656 5.140625 -6.234375 C 5.140625 -5.378906 5.40625 -4.675781 5.9375 -4.125 C 6.476562 -3.582031 7.1875 -3.3125 8.0625 -3.3125 C 8.90625 -3.3125 9.597656 -3.585938 10.140625 -4.140625 C 10.691406 -4.691406 10.96875 -5.390625 10.96875 -6.234375 C 10.96875 -7.097656 10.6875 -7.804688 10.125 -8.359375 C 9.5625 -8.910156 8.875 -9.1875 8.0625 -9.1875 C 7.238281 -9.1875 6.546875 -8.910156 5.984375 -8.359375 Z M 5.984375 -8.359375 "/></g></g></g><g fill="#5271ff" fill-opacity="1"><g transform="translate(92.635052, 21.119005)"><g><path d="M 6.890625 -12.875 C 7.609375 -12.875 8.316406 -12.789062 9.015625 -12.625 C 9.710938 -12.457031 10.234375 -12.296875 10.578125 -12.140625 L 11.09375 -11.890625 L 9.671875 -9.0625 C 8.703125 -9.582031 7.773438 -9.84375 6.890625 -9.84375 C 6.410156 -9.84375 6.066406 -9.789062 5.859375 -9.6875 C 5.660156 -9.582031 5.5625 -9.382812 5.5625 -9.09375 C 5.5625 -9.03125 5.566406 -8.960938 5.578125 -8.890625 C 5.597656 -8.828125 5.628906 -8.765625 5.671875 -8.703125 C 5.722656 -8.648438 5.769531 -8.601562 5.8125 -8.5625 C 5.851562 -8.519531 5.921875 -8.472656 6.015625 -8.421875 C 6.117188 -8.378906 6.195312 -8.34375 6.25 -8.3125 C 6.3125 -8.289062 6.40625 -8.253906 6.53125 -8.203125 C 6.664062 -8.160156 6.765625 -8.125 6.828125 -8.09375 C 6.890625 -8.070312 7 -8.035156 7.15625 -7.984375 C 7.3125 -7.941406 7.425781 -7.910156 7.5 -7.890625 C 8.007812 -7.742188 8.453125 -7.582031 8.828125 -7.40625 C 9.203125 -7.226562 9.59375 -6.984375 10 -6.671875 C 10.414062 -6.367188 10.738281 -5.976562 10.96875 -5.5 C 11.195312 -5.03125 11.3125 -4.5 11.3125 -3.90625 C 11.3125 -1.0625 9.335938 0.359375 5.390625 0.359375 C 4.492188 0.359375 3.644531 0.222656 2.84375 -0.046875 C 2.039062 -0.328125 1.457031 -0.601562 1.09375 -0.875 L 0.5625 -1.3125 L 2.3125 -4.265625 C 2.445312 -4.148438 2.617188 -4.015625 2.828125 -3.859375 C 3.035156 -3.703125 3.414062 -3.488281 3.96875 -3.21875 C 4.519531 -2.957031 5 -2.828125 5.40625 -2.828125 C 6.300781 -2.828125 6.75 -3.128906 6.75 -3.734375 C 6.75 -4.003906 6.632812 -4.21875 6.40625 -4.375 C 6.175781 -4.53125 5.789062 -4.703125 5.25 -4.890625 C 4.707031 -5.085938 4.28125 -5.269531 3.96875 -5.4375 C 3.1875 -5.84375 2.566406 -6.300781 2.109375 -6.8125 C 1.660156 -7.320312 1.4375 -8 1.4375 -8.84375 C 1.4375 -10.113281 1.925781 -11.101562 2.90625 -11.8125 C 3.894531 -12.519531 5.222656 -12.875 6.890625 -12.875 Z M 6.890625 -12.875 "/></g></g></g><g fill="#5271ff" fill-opacity="1"><g transform="translate(102.331596, 21.119005)"><g><path d="M 14.109375 -5.65625 L 5.046875 -5.65625 C 5.046875 -4.78125 5.328125 -4.128906 5.890625 -3.703125 C 6.460938 -3.285156 7.082031 -3.078125 7.75 -3.078125 C 8.445312 -3.078125 9 -3.164062 9.40625 -3.34375 C 9.8125 -3.53125 10.273438 -3.898438 10.796875 -4.453125 L 13.921875 -2.90625 C 12.617188 -0.726562 10.457031 0.359375 7.4375 0.359375 C 5.550781 0.359375 3.929688 -0.285156 2.578125 -1.578125 C 1.234375 -2.867188 0.5625 -4.421875 0.5625 -6.234375 C 0.5625 -8.054688 1.234375 -9.617188 2.578125 -10.921875 C 3.929688 -12.222656 5.550781 -12.875 7.4375 -12.875 C 9.414062 -12.875 11.023438 -12.300781 12.265625 -11.15625 C 13.515625 -10.007812 14.140625 -8.367188 14.140625 -6.234375 C 14.140625 -5.941406 14.128906 -5.75 14.109375 -5.65625 Z M 5.171875 -8.046875 L 9.921875 -8.046875 C 9.828125 -8.691406 9.570312 -9.1875 9.15625 -9.53125 C 8.738281 -9.882812 8.207031 -10.0625 7.5625 -10.0625 C 6.84375 -10.0625 6.269531 -9.875 5.84375 -9.5 C 5.425781 -9.132812 5.203125 -8.648438 5.171875 -8.046875 Z M 5.171875 -8.046875 "/></g></g></g><g fill="#5271ff" fill-opacity="1"><g transform="translate(114.732636, 21.119005)"><g><path d="M 4.234375 -5.21875 C 5.015625 -5.21875 5.675781 -4.941406 6.21875 -4.390625 C 6.769531 -3.847656 7.046875 -3.1875 7.046875 -2.40625 C 7.046875 -1.644531 6.769531 -0.992188 6.21875 -0.453125 C 5.675781 0.0859375 5.015625 0.359375 4.234375 0.359375 C 3.472656 0.359375 2.820312 0.0859375 2.28125 -0.453125 C 1.738281 -0.992188 1.46875 -1.644531 1.46875 -2.40625 C 1.46875 -3.1875 1.738281 -3.847656 2.28125 -4.390625 C 2.820312 -4.941406 3.472656 -5.21875 4.234375 -5.21875 Z M 4.234375 -5.21875 "/></g></g></g><g fill="#000000" fill-opacity="1"><g transform="translate(32.044454, 27.738196)"><g><path d="M 2.859375 -3.4375 C 2.953125 -3.4375 3.023438 -3.40625 3.078125 -3.34375 C 3.128906 -3.289062 3.15625 -3.222656 3.15625 -3.140625 L 3.15625 -0.296875 C 3.15625 -0.210938 3.125 -0.140625 3.0625 -0.078125 C 3.007812 -0.0234375 2.9375 0 2.84375 0 C 2.757812 0 2.6875 -0.0234375 2.625 -0.078125 C 2.570312 -0.140625 2.546875 -0.210938 2.546875 -0.296875 L 2.546875 -1.4375 L 0.984375 -1.4375 L 0.984375 -0.296875 C 0.984375 -0.210938 0.953125 -0.140625 0.890625 -0.078125 C 0.828125 -0.0234375 0.753906 0 0.671875 0 C 0.585938 0 0.515625 -0.0234375 0.453125 -0.078125 C 0.398438 -0.140625 0.375 -0.210938 0.375 -0.296875 L 0.375 -3.140625 C 0.375 -3.222656 0.398438 -3.289062 0.453125 -3.34375 C 0.515625 -3.40625 0.59375 -3.4375 0.6875 -3.4375 C 0.757812 -3.4375 0.828125 -3.40625 0.890625 -3.34375 C 0.953125 -3.289062 0.984375 -3.222656 0.984375 -3.140625 L 0.984375 -2 L 2.546875 -2 L 2.546875 -3.140625 C 2.546875 -3.222656 2.578125 -3.289062 2.640625 -3.34375 C 2.703125 -3.40625 2.773438 -3.4375 2.859375 -3.4375 Z M 2.859375 -3.4375 "/></g></g></g><g fill="#000000" fill-opacity="1"><g transform="translate(38.766997, 27.738196)"><g><path d="M 2.4375 -2.671875 C 2.53125 -2.671875 2.601562 -2.640625 2.65625 -2.578125 C 2.707031 -2.523438 2.734375 -2.457031 2.734375 -2.375 L 2.734375 -0.296875 C 2.734375 -0.210938 2.707031 -0.140625 2.65625 -0.078125 C 2.601562 -0.0234375 2.53125 0 2.4375 0 C 2.351562 0 2.285156 -0.0234375 2.234375 -0.078125 C 2.179688 -0.140625 2.15625 -0.210938 2.15625 -0.296875 C 2.070312 -0.203125 1.957031 -0.117188 1.8125 -0.046875 C 1.675781 0.015625 1.53125 0.046875 1.375 0.046875 C 1.15625 0.046875 0.953125 -0.0078125 0.765625 -0.125 C 0.578125 -0.238281 0.429688 -0.398438 0.328125 -0.609375 C 0.222656 -0.816406 0.171875 -1.050781 0.171875 -1.3125 C 0.171875 -1.570312 0.222656 -1.804688 0.328125 -2.015625 C 0.429688 -2.222656 0.570312 -2.382812 0.75 -2.5 C 0.9375 -2.613281 1.140625 -2.671875 1.359375 -2.671875 C 1.515625 -2.671875 1.660156 -2.640625 1.796875 -2.578125 C 1.929688 -2.523438 2.050781 -2.457031 2.15625 -2.375 C 2.15625 -2.457031 2.179688 -2.523438 2.234375 -2.578125 C 2.285156 -2.640625 2.351562 -2.671875 2.4375 -2.671875 Z M 1.453125 -0.484375 C 1.660156 -0.484375 1.832031 -0.5625 1.96875 -0.71875 C 2.101562 -0.875 2.171875 -1.070312 2.171875 -1.3125 C 2.171875 -1.539062 2.101562 -1.734375 1.96875 -1.890625 C 1.832031 -2.054688 1.660156 -2.140625 1.453125 -2.140625 C 1.242188 -2.140625 1.070312 -2.054688 0.9375 -1.890625 C 0.800781 -1.734375 0.734375 -1.539062 0.734375 -1.3125 C 0.734375 -1.070312 0.800781 -0.875 0.9375 -0.71875 C 1.070312 -0.5625 1.242188 -0.484375 1.453125 -0.484375 Z M 1.453125 -0.484375 "/></g></g></g><g fill="#000000" fill-opacity="1"><g transform="translate(45.018952, 27.738196)"><g><path d="M 0.875 -0.296875 C 0.875 -0.210938 0.84375 -0.140625 0.78125 -0.078125 C 0.726562 -0.0234375 0.660156 0 0.578125 0 C 0.492188 0 0.421875 -0.0234375 0.359375 -0.078125 C 0.304688 -0.140625 0.28125 -0.210938 0.28125 -0.296875 L 0.28125 -2.328125 C 0.28125 -2.410156 0.304688 -2.476562 0.359375 -2.53125 C 0.421875 -2.59375 0.492188 -2.625 0.578125 -2.625 C 0.660156 -2.625 0.726562 -2.59375 0.78125 -2.53125 C 0.84375 -2.476562 0.875 -2.410156 0.875 -2.328125 Z M 0.578125 -2.9375 C 0.472656 -2.9375 0.394531 -2.953125 0.34375 -2.984375 C 0.300781 -3.023438 0.28125 -3.09375 0.28125 -3.1875 L 0.28125 -3.28125 C 0.28125 -3.375 0.300781 -3.4375 0.34375 -3.46875 C 0.394531 -3.507812 0.476562 -3.53125 0.59375 -3.53125 C 0.707031 -3.53125 0.785156 -3.507812 0.828125 -3.46875 C 0.867188 -3.4375 0.890625 -3.375 0.890625 -3.28125 L 0.890625 -3.1875 C 0.890625 -3.09375 0.863281 -3.023438 0.8125 -2.984375 C 0.769531 -2.953125 0.691406 -2.9375 0.578125 -2.9375 Z M 0.578125 -2.9375 "/></g></g></g><g fill="#000000" fill-opacity="1"><g transform="translate(49.373853, 27.738196)"><g><path d="M 1.6875 -2.671875 C 1.78125 -2.671875 1.859375 -2.640625 1.921875 -2.578125 C 1.992188 -2.523438 2.03125 -2.460938 2.03125 -2.390625 C 2.03125 -2.285156 2.003906 -2.207031 1.953125 -2.15625 C 1.898438 -2.113281 1.835938 -2.09375 1.765625 -2.09375 C 1.710938 -2.09375 1.65625 -2.101562 1.59375 -2.125 C 1.582031 -2.125 1.5625 -2.128906 1.53125 -2.140625 C 1.5 -2.148438 1.460938 -2.15625 1.421875 -2.15625 C 1.335938 -2.15625 1.253906 -2.128906 1.171875 -2.078125 C 1.097656 -2.023438 1.035156 -1.945312 0.984375 -1.84375 C 0.929688 -1.738281 0.90625 -1.613281 0.90625 -1.46875 L 0.90625 -0.296875 C 0.90625 -0.210938 0.875 -0.140625 0.8125 -0.078125 C 0.757812 -0.0234375 0.691406 0 0.609375 0 C 0.523438 0 0.453125 -0.0234375 0.390625 -0.078125 C 0.335938 -0.140625 0.3125 -0.210938 0.3125 -0.296875 L 0.3125 -2.328125 C 0.3125 -2.410156 0.335938 -2.476562 0.390625 -2.53125 C 0.453125 -2.59375 0.523438 -2.625 0.609375 -2.625 C 0.691406 -2.625 0.757812 -2.59375 0.8125 -2.53125 C 0.875 -2.476562 0.90625 -2.410156 0.90625 -2.328125 L 0.90625 -2.265625 C 0.976562 -2.398438 1.082031 -2.5 1.21875 -2.5625 C 1.363281 -2.632812 1.519531 -2.671875 1.6875 -2.671875 Z M 1.6875 -2.671875 "/></g></g></g><g fill="#000000" fill-opacity="1"><g transform="translate(54.699343, 27.738196)"><g/></g></g><g fill="#000000" fill-opacity="1"><g transform="translate(59.269929, 27.738196)"><g><path d="M 1.84375 -3.4375 C 2.144531 -3.4375 2.40625 -3.359375 2.625 -3.203125 C 2.851562 -3.054688 3.023438 -2.851562 3.140625 -2.59375 C 3.253906 -2.332031 3.3125 -2.039062 3.3125 -1.71875 C 3.3125 -1.394531 3.253906 -1.101562 3.140625 -0.84375 C 3.023438 -0.582031 2.851562 -0.375 2.625 -0.21875 C 2.40625 -0.0703125 2.144531 0 1.84375 0 L 0.671875 0 C 0.585938 0 0.515625 -0.0234375 0.453125 -0.078125 C 0.398438 -0.140625 0.375 -0.210938 0.375 -0.296875 L 0.375 -3.140625 C 0.375 -3.222656 0.398438 -3.289062 0.453125 -3.34375 C 0.515625 -3.40625 0.585938 -3.4375 0.671875 -3.4375 Z M 1.796875 -0.5625 C 2.085938 -0.5625 2.304688 -0.671875 2.453125 -0.890625 C 2.597656 -1.109375 2.671875 -1.382812 2.671875 -1.71875 C 2.671875 -2.050781 2.597656 -2.328125 2.453125 -2.546875 C 2.304688 -2.765625 2.085938 -2.875 1.796875 -2.875 L 0.984375 -2.875 L 0.984375 -0.5625 Z M 1.796875 -0.5625 "/></g></g></g><g fill="#000000" fill-opacity="1"><g transform="translate(65.972866, 27.738196)"><g><path d="M 1.6875 -2.671875 C 1.78125 -2.671875 1.859375 -2.640625 1.921875 -2.578125 C 1.992188 -2.523438 2.03125 -2.460938 2.03125 -2.390625 C 2.03125 -2.285156 2.003906 -2.207031 1.953125 -2.15625 C 1.898438 -2.113281 1.835938 -2.09375 1.765625 -2.09375 C 1.710938 -2.09375 1.65625 -2.101562 1.59375 -2.125 C 1.582031 -2.125 1.5625 -2.128906 1.53125 -2.140625 C 1.5 -2.148438 1.460938 -2.15625 1.421875 -2.15625 C 1.335938 -2.15625 1.253906 -2.128906 1.171875 -2.078125 C 1.097656 -2.023438 1.035156 -1.945312 0.984375 -1.84375 C 0.929688 -1.738281 0.90625 -1.613281 0.90625 -1.46875 L 0.90625 -0.296875 C 0.90625 -0.210938 0.875 -0.140625 0.8125 -0.078125 C 0.757812 -0.0234375 0.691406 0 0.609375 0 C 0.523438 0 0.453125 -0.0234375 0.390625 -0.078125 C 0.335938 -0.140625 0.3125 -0.210938 0.3125 -0.296875 L 0.3125 -2.328125 C 0.3125 -2.410156 0.335938 -2.476562 0.390625 -2.53125 C 0.453125 -2.59375 0.523438 -2.625 0.609375 -2.625 C 0.691406 -2.625 0.757812 -2.59375 0.8125 -2.53125 C 0.875 -2.476562 0.90625 -2.410156 0.90625 -2.328125 L 0.90625 -2.265625 C 0.976562 -2.398438 1.082031 -2.5 1.21875 -2.5625 C 1.363281 -2.632812 1.519531 -2.671875 1.6875 -2.671875 Z M 1.6875 -2.671875 "/></g></g></g><g fill="#000000" fill-opacity="1"><g transform="translate(71.298356, 27.738196)"><g><path d="M 2.671875 -1.375 C 2.671875 -1.289062 2.640625 -1.222656 2.578125 -1.171875 C 2.523438 -1.128906 2.457031 -1.109375 2.375 -1.109375 L 0.75 -1.109375 C 0.789062 -0.910156 0.878906 -0.753906 1.015625 -0.640625 C 1.160156 -0.535156 1.320312 -0.484375 1.5 -0.484375 C 1.632812 -0.484375 1.738281 -0.492188 1.8125 -0.515625 C 1.882812 -0.546875 1.941406 -0.570312 1.984375 -0.59375 C 2.035156 -0.625 2.066406 -0.644531 2.078125 -0.65625 C 2.140625 -0.6875 2.195312 -0.703125 2.25 -0.703125 C 2.320312 -0.703125 2.378906 -0.675781 2.421875 -0.625 C 2.472656 -0.582031 2.5 -0.53125 2.5 -0.46875 C 2.5 -0.375 2.453125 -0.289062 2.359375 -0.21875 C 2.273438 -0.144531 2.15625 -0.0820312 2 -0.03125 C 1.84375 0.0195312 1.6875 0.046875 1.53125 0.046875 C 1.257812 0.046875 1.019531 -0.0078125 0.8125 -0.125 C 0.601562 -0.238281 0.441406 -0.394531 0.328125 -0.59375 C 0.222656 -0.789062 0.171875 -1.019531 0.171875 -1.28125 C 0.171875 -1.5625 0.226562 -1.804688 0.34375 -2.015625 C 0.46875 -2.222656 0.625 -2.382812 0.8125 -2.5 C 1.007812 -2.613281 1.21875 -2.671875 1.4375 -2.671875 C 1.644531 -2.671875 1.84375 -2.613281 2.03125 -2.5 C 2.226562 -2.382812 2.382812 -2.222656 2.5 -2.015625 C 2.613281 -1.816406 2.671875 -1.601562 2.671875 -1.375 Z M 1.4375 -2.140625 C 1.050781 -2.140625 0.828125 -1.957031 0.765625 -1.59375 L 2.046875 -1.59375 L 2.046875 -1.640625 C 2.035156 -1.773438 1.96875 -1.890625 1.84375 -1.984375 C 1.71875 -2.085938 1.582031 -2.140625 1.4375 -2.140625 Z M 1.4375 -2.140625 "/></g></g></g><g fill="#000000" fill-opacity="1"><g transform="translate(77.339528, 27.738196)"><g><path d="M 0.171875 -0.40625 C 0.140625 -0.445312 0.125 -0.492188 0.125 -0.546875 C 0.125 -0.640625 0.164062 -0.710938 0.25 -0.765625 C 0.289062 -0.796875 0.335938 -0.8125 0.390625 -0.8125 C 0.460938 -0.8125 0.53125 -0.78125 0.59375 -0.71875 C 0.6875 -0.613281 0.785156 -0.535156 0.890625 -0.484375 C 1.003906 -0.441406 1.132812 -0.421875 1.28125 -0.421875 C 1.53125 -0.429688 1.65625 -0.53125 1.65625 -0.71875 C 1.65625 -0.8125 1.613281 -0.878906 1.53125 -0.921875 C 1.445312 -0.972656 1.3125 -1.023438 1.125 -1.078125 C 0.9375 -1.128906 0.78125 -1.179688 0.65625 -1.234375 C 0.539062 -1.285156 0.4375 -1.363281 0.34375 -1.46875 C 0.257812 -1.570312 0.21875 -1.71875 0.21875 -1.90625 C 0.21875 -2.0625 0.265625 -2.195312 0.359375 -2.3125 C 0.453125 -2.425781 0.570312 -2.515625 0.71875 -2.578125 C 0.863281 -2.640625 1.015625 -2.671875 1.171875 -2.671875 C 1.335938 -2.671875 1.503906 -2.640625 1.671875 -2.578125 C 1.835938 -2.515625 1.972656 -2.425781 2.078125 -2.3125 C 2.117188 -2.257812 2.140625 -2.195312 2.140625 -2.125 C 2.140625 -2.050781 2.109375 -1.988281 2.046875 -1.9375 C 1.992188 -1.90625 1.941406 -1.890625 1.890625 -1.890625 C 1.816406 -1.890625 1.753906 -1.910156 1.703125 -1.953125 C 1.648438 -2.023438 1.578125 -2.082031 1.484375 -2.125 C 1.390625 -2.164062 1.28125 -2.1875 1.15625 -2.1875 C 0.914062 -2.1875 0.796875 -2.097656 0.796875 -1.921875 C 0.796875 -1.847656 0.816406 -1.789062 0.859375 -1.75 C 0.898438 -1.707031 0.957031 -1.671875 1.03125 -1.640625 C 1.101562 -1.617188 1.203125 -1.59375 1.328125 -1.5625 C 1.503906 -1.507812 1.648438 -1.457031 1.765625 -1.40625 C 1.890625 -1.351562 1.988281 -1.269531 2.0625 -1.15625 C 2.144531 -1.050781 2.1875 -0.910156 2.1875 -0.734375 C 2.1875 -0.578125 2.140625 -0.4375 2.046875 -0.3125 C 1.953125 -0.195312 1.832031 -0.109375 1.6875 -0.046875 C 1.539062 0.015625 1.382812 0.046875 1.21875 0.046875 C 1.007812 0.046875 0.8125 0.0078125 0.625 -0.0625 C 0.4375 -0.132812 0.285156 -0.25 0.171875 -0.40625 Z M 0.171875 -0.40625 "/></g></g></g><g fill="#000000" fill-opacity="1"><g transform="translate(82.900311, 27.738196)"><g><path d="M 0.171875 -0.40625 C 0.140625 -0.445312 0.125 -0.492188 0.125 -0.546875 C 0.125 -0.640625 0.164062 -0.710938 0.25 -0.765625 C 0.289062 -0.796875 0.335938 -0.8125 0.390625 -0.8125 C 0.460938 -0.8125 0.53125 -0.78125 0.59375 -0.71875 C 0.6875 -0.613281 0.785156 -0.535156 0.890625 -0.484375 C 1.003906 -0.441406 1.132812 -0.421875 1.28125 -0.421875 C 1.53125 -0.429688 1.65625 -0.53125 1.65625 -0.71875 C 1.65625 -0.8125 1.613281 -0.878906 1.53125 -0.921875 C 1.445312 -0.972656 1.3125 -1.023438 1.125 -1.078125 C 0.9375 -1.128906 0.78125 -1.179688 0.65625 -1.234375 C 0.539062 -1.285156 0.4375 -1.363281 0.34375 -1.46875 C 0.257812 -1.570312 0.21875 -1.71875 0.21875 -1.90625 C 0.21875 -2.0625 0.265625 -2.195312 0.359375 -2.3125 C 0.453125 -2.425781 0.570312 -2.515625 0.71875 -2.578125 C 0.863281 -2.640625 1.015625 -2.671875 1.171875 -2.671875 C 1.335938 -2.671875 1.503906 -2.640625 1.671875 -2.578125 C 1.835938 -2.515625 1.972656 -2.425781 2.078125 -2.3125 C 2.117188 -2.257812 2.140625 -2.195312 2.140625 -2.125 C 2.140625 -2.050781 2.109375 -1.988281 2.046875 -1.9375 C 1.992188 -1.90625 1.941406 -1.890625 1.890625 -1.890625 C 1.816406 -1.890625 1.753906 -1.910156 1.703125 -1.953125 C 1.648438 -2.023438 1.578125 -2.082031 1.484375 -2.125 C 1.390625 -2.164062 1.28125 -2.1875 1.15625 -2.1875 C 0.914062 -2.1875 0.796875 -2.097656 0.796875 -1.921875 C 0.796875 -1.847656 0.816406 -1.789062 0.859375 -1.75 C 0.898438 -1.707031 0.957031 -1.671875 1.03125 -1.640625 C 1.101562 -1.617188 1.203125 -1.59375 1.328125 -1.5625 C 1.503906 -1.507812 1.648438 -1.457031 1.765625 -1.40625 C 1.890625 -1.351562 1.988281 -1.269531 2.0625 -1.15625 C 2.144531 -1.050781 2.1875 -0.910156 2.1875 -0.734375 C 2.1875 -0.578125 2.140625 -0.4375 2.046875 -0.3125 C 1.953125 -0.195312 1.832031 -0.109375 1.6875 -0.046875 C 1.539062 0.015625 1.382812 0.046875 1.21875 0.046875 C 1.007812 0.046875 0.8125 0.0078125 0.625 -0.0625 C 0.4375 -0.132812 0.285156 -0.25 0.171875 -0.40625 Z M 0.171875 -0.40625 "/></g></g></g><g fill="#000000" fill-opacity="1"><g transform="translate(88.461095, 27.738196)"><g><path d="M 2.671875 -1.375 C 2.671875 -1.289062 2.640625 -1.222656 2.578125 -1.171875 C 2.523438 -1.128906 2.457031 -1.109375 2.375 -1.109375 L 0.75 -1.109375 C 0.789062 -0.910156 0.878906 -0.753906 1.015625 -0.640625 C 1.160156 -0.535156 1.320312 -0.484375 1.5 -0.484375 C 1.632812 -0.484375 1.738281 -0.492188 1.8125 -0.515625 C 1.882812 -0.546875 1.941406 -0.570312 1.984375 -0.59375 C 2.035156 -0.625 2.066406 -0.644531 2.078125 -0.65625 C 2.140625 -0.6875 2.195312 -0.703125 2.25 -0.703125 C 2.320312 -0.703125 2.378906 -0.675781 2.421875 -0.625 C 2.472656 -0.582031 2.5 -0.53125 2.5 -0.46875 C 2.5 -0.375 2.453125 -0.289062 2.359375 -0.21875 C 2.273438 -0.144531 2.15625 -0.0820312 2 -0.03125 C 1.84375 0.0195312 1.6875 0.046875 1.53125 0.046875 C 1.257812 0.046875 1.019531 -0.0078125 0.8125 -0.125 C 0.601562 -0.238281 0.441406 -0.394531 0.328125 -0.59375 C 0.222656 -0.789062 0.171875 -1.019531 0.171875 -1.28125 C 0.171875 -1.5625 0.226562 -1.804688 0.34375 -2.015625 C 0.46875 -2.222656 0.625 -2.382812 0.8125 -2.5 C 1.007812 -2.613281 1.21875 -2.671875 1.4375 -2.671875 C 1.644531 -2.671875 1.84375 -2.613281 2.03125 -2.5 C 2.226562 -2.382812 2.382812 -2.222656 2.5 -2.015625 C 2.613281 -1.816406 2.671875 -1.601562 2.671875 -1.375 Z M 1.4375 -2.140625 C 1.050781 -2.140625 0.828125 -1.957031 0.765625 -1.59375 L 2.046875 -1.59375 L 2.046875 -1.640625 C 2.035156 -1.773438 1.96875 -1.890625 1.84375 -1.984375 C 1.71875 -2.085938 1.582031 -2.140625 1.4375 -2.140625 Z M 1.4375 -2.140625 "/></g></g></g><g fill="#000000" fill-opacity="1"><g transform="translate(94.502264, 27.738196)"><g><path d="M 1.6875 -2.671875 C 1.78125 -2.671875 1.859375 -2.640625 1.921875 -2.578125 C 1.992188 -2.523438 2.03125 -2.460938 2.03125 -2.390625 C 2.03125 -2.285156 2.003906 -2.207031 1.953125 -2.15625 C 1.898438 -2.113281 1.835938 -2.09375 1.765625 -2.09375 C 1.710938 -2.09375 1.65625 -2.101562 1.59375 -2.125 C 1.582031 -2.125 1.5625 -2.128906 1.53125 -2.140625 C 1.5 -2.148438 1.460938 -2.15625 1.421875 -2.15625 C 1.335938 -2.15625 1.253906 -2.128906 1.171875 -2.078125 C 1.097656 -2.023438 1.035156 -1.945312 0.984375 -1.84375 C 0.929688 -1.738281 0.90625 -1.613281 0.90625 -1.46875 L 0.90625 -0.296875 C 0.90625 -0.210938 0.875 -0.140625 0.8125 -0.078125 C 0.757812 -0.0234375 0.691406 0 0.609375 0 C 0.523438 0 0.453125 -0.0234375 0.390625 -0.078125 C 0.335938 -0.140625 0.3125 -0.210938 0.3125 -0.296875 L 0.3125 -2.328125 C 0.3125 -2.410156 0.335938 -2.476562 0.390625 -2.53125 C 0.453125 -2.59375 0.523438 -2.625 0.609375 -2.625 C 0.691406 -2.625 0.757812 -2.59375 0.8125 -2.53125 C 0.875 -2.476562 0.90625 -2.410156 0.90625 -2.328125 L 0.90625 -2.265625 C 0.976562 -2.398438 1.082031 -2.5 1.21875 -2.5625 C 1.363281 -2.632812 1.519531 -2.671875 1.6875 -2.671875 Z M 1.6875 -2.671875 "/></g></g></g></svg>